M48
;DRILL file {KiCad 201610121319+7306~55~ubuntu14.04.1-} date Wed Oct 19 15:16:20 2016
;FORMAT={-:-/ absolute / inch / decimal}
FMAT,2
INCH,TZ
T1C0.016
T2C0.020
T3C0.024
T4C0.030
%
G90
G05
M72
T1
X3.405Y-3.64
X3.445Y-3.64
X3.485Y-3.64
X3.525Y-3.64
X3.555Y-2.905
X3.555Y-2.935
X3.555Y-2.965
X3.555Y-2.995
X3.555Y-3.025
X3.555Y-3.055
X3.555Y-3.085
X3.555Y-3.115
X3.555Y-3.145
X3.555Y-3.175
X3.555Y-3.205
X3.57Y-3.64
X3.61Y-3.64
X3.655Y-3.64
X3.675Y-2.9
X3.695Y-3.64
X3.735Y-2.795
X3.74Y-3.64
X3.78Y-3.64
X3.8Y-2.899
X3.8Y-3.115
X3.81Y-2.745
X3.82Y-3.64
X3.86Y-3.64
X4.31Y-2.79
X4.335Y-2.79
X4.36Y-2.79
X4.385Y-2.79
X4.41Y-2.79
X4.43Y-3.195
X4.435Y-2.79
X4.455Y-3.17
X4.46Y-2.79
X4.525Y-3.64
X4.535Y-3.09
X4.565Y-3.06
X4.575Y-3.64
X4.625Y-3.64
X4.64Y-2.35
X4.665Y-2.375
X4.675Y-3.64
X4.69Y-2.4
X4.7175Y-2.4275
X4.73Y-3.64
X4.745Y-2.455
X4.775Y-2.485
X4.785Y-3.64
X4.805Y-2.515
X4.835Y-2.545
X4.84Y-3.64
X4.865Y-2.575
X4.89Y-3.64
X4.945Y-3.64
X5.Y-3.64
T3
X4.052Y-2.11
X4.1012Y-2.11
X4.1504Y-2.11
X4.1996Y-2.11
X4.2488Y-2.11
X4.298Y-2.11
T4
X3.94Y-2.45
X4.04Y-2.45
X4.3Y-2.45
X4.4Y-2.45
T2
X3.775Y-3.3899G85X3.775Y-3.5001
G05
X4.585Y-3.3899G85X4.585Y-3.5001
G05
T0
M30
