G04 #@! TF.FileFunction,Legend,Bot*
%FSLAX46Y46*%
G04 Gerber Fmt 4.6, Leading zero omitted, Abs format (unit mm)*
G04 Created by KiCad (PCBNEW 201610121319+7306~55~ubuntu14.04.1-) date Wed Oct 19 15:16:00 2016*
%MOMM*%
%LPD*%
G01*
G04 APERTURE LIST*
%ADD10C,0.100000*%
%ADD11C,0.254000*%
%ADD12C,0.300000*%
%ADD13C,0.444500*%
%ADD14C,0.400000*%
%ADD15C,0.508000*%
%ADD16C,0.150000*%
%ADD17C,0.127000*%
%ADD18C,0.700000*%
%ADD19C,0.500000*%
%ADD20C,0.200000*%
%ADD21C,0.203200*%
%ADD22C,0.350000*%
G04 APERTURE END LIST*
D10*
D11*
X98881595Y-62816619D02*
X98881595Y-61800619D01*
X98301023Y-62816619D02*
X98736452Y-62236047D01*
X98301023Y-61800619D02*
X98881595Y-62381190D01*
X108025595Y-62816619D02*
X108025595Y-61800619D01*
X107445023Y-62816619D02*
X107880452Y-62236047D01*
X107445023Y-61800619D02*
X108025595Y-62381190D01*
X113398904Y-62526333D02*
X112915095Y-62526333D01*
X113495666Y-62816619D02*
X113157000Y-61800619D01*
X112818333Y-62816619D01*
X104254904Y-62526333D02*
X103771095Y-62526333D01*
X104351666Y-62816619D02*
X104013000Y-61800619D01*
X103674333Y-62816619D01*
D12*
X117381261Y-60709023D02*
X117381261Y-59439023D01*
X116836976Y-60709023D02*
X116836976Y-60043785D01*
X116897452Y-59922833D01*
X117018404Y-59862357D01*
X117199833Y-59862357D01*
X117320785Y-59922833D01*
X117381261Y-59983309D01*
X116413642Y-59862357D02*
X115929833Y-59862357D01*
X116232214Y-59439023D02*
X116232214Y-60527595D01*
X116171738Y-60648547D01*
X116050785Y-60709023D01*
X115929833Y-60709023D01*
X115687928Y-59862357D02*
X115204119Y-59862357D01*
X115506500Y-59439023D02*
X115506500Y-60527595D01*
X115446023Y-60648547D01*
X115325071Y-60709023D01*
X115204119Y-60709023D01*
X114780785Y-59862357D02*
X114780785Y-61132357D01*
X114780785Y-59922833D02*
X114659833Y-59862357D01*
X114417928Y-59862357D01*
X114296976Y-59922833D01*
X114236500Y-59983309D01*
X114176023Y-60104261D01*
X114176023Y-60467119D01*
X114236500Y-60588071D01*
X114296976Y-60648547D01*
X114417928Y-60709023D01*
X114659833Y-60709023D01*
X114780785Y-60648547D01*
X113692214Y-60648547D02*
X113571261Y-60709023D01*
X113329357Y-60709023D01*
X113208404Y-60648547D01*
X113147928Y-60527595D01*
X113147928Y-60467119D01*
X113208404Y-60346166D01*
X113329357Y-60285690D01*
X113510785Y-60285690D01*
X113631738Y-60225214D01*
X113692214Y-60104261D01*
X113692214Y-60043785D01*
X113631738Y-59922833D01*
X113510785Y-59862357D01*
X113329357Y-59862357D01*
X113208404Y-59922833D01*
X112603642Y-60588071D02*
X112543166Y-60648547D01*
X112603642Y-60709023D01*
X112664119Y-60648547D01*
X112603642Y-60588071D01*
X112603642Y-60709023D01*
X112603642Y-59922833D02*
X112543166Y-59983309D01*
X112603642Y-60043785D01*
X112664119Y-59983309D01*
X112603642Y-59922833D01*
X112603642Y-60043785D01*
X111091738Y-59378547D02*
X112180309Y-61011404D01*
X109761261Y-59378547D02*
X110849833Y-61011404D01*
X109458880Y-59862357D02*
X109216976Y-60709023D01*
X108975071Y-60104261D01*
X108733166Y-60709023D01*
X108491261Y-59862357D01*
X108128404Y-59862357D02*
X107886500Y-60709023D01*
X107644595Y-60104261D01*
X107402690Y-60709023D01*
X107160785Y-59862357D01*
X106797928Y-59862357D02*
X106556023Y-60709023D01*
X106314119Y-60104261D01*
X106072214Y-60709023D01*
X105830309Y-59862357D01*
X105346500Y-60588071D02*
X105286023Y-60648547D01*
X105346500Y-60709023D01*
X105406976Y-60648547D01*
X105346500Y-60588071D01*
X105346500Y-60709023D01*
X104560309Y-60709023D02*
X104681261Y-60648547D01*
X104741738Y-60588071D01*
X104802214Y-60467119D01*
X104802214Y-60104261D01*
X104741738Y-59983309D01*
X104681261Y-59922833D01*
X104560309Y-59862357D01*
X104378880Y-59862357D01*
X104257928Y-59922833D01*
X104197452Y-59983309D01*
X104136976Y-60104261D01*
X104136976Y-60467119D01*
X104197452Y-60588071D01*
X104257928Y-60648547D01*
X104378880Y-60709023D01*
X104560309Y-60709023D01*
X103411261Y-60709023D02*
X103532214Y-60648547D01*
X103592690Y-60527595D01*
X103592690Y-59439023D01*
X102927452Y-60709023D02*
X102927452Y-59862357D01*
X102927452Y-59439023D02*
X102987928Y-59499500D01*
X102927452Y-59559976D01*
X102866976Y-59499500D01*
X102927452Y-59439023D01*
X102927452Y-59559976D01*
X102322690Y-60709023D02*
X102322690Y-59862357D01*
X102322690Y-59983309D02*
X102262214Y-59922833D01*
X102141261Y-59862357D01*
X101959833Y-59862357D01*
X101838880Y-59922833D01*
X101778404Y-60043785D01*
X101778404Y-60709023D01*
X101778404Y-60043785D02*
X101717928Y-59922833D01*
X101596976Y-59862357D01*
X101415547Y-59862357D01*
X101294595Y-59922833D01*
X101234119Y-60043785D01*
X101234119Y-60709023D01*
X100145547Y-60648547D02*
X100266500Y-60709023D01*
X100508404Y-60709023D01*
X100629357Y-60648547D01*
X100689833Y-60527595D01*
X100689833Y-60043785D01*
X100629357Y-59922833D01*
X100508404Y-59862357D01*
X100266500Y-59862357D01*
X100145547Y-59922833D01*
X100085071Y-60043785D01*
X100085071Y-60164738D01*
X100689833Y-60285690D01*
X99661738Y-60709023D02*
X98996500Y-59862357D01*
X99661738Y-59862357D02*
X98996500Y-60709023D01*
X98512690Y-60588071D02*
X98452214Y-60648547D01*
X98512690Y-60709023D01*
X98573166Y-60648547D01*
X98512690Y-60588071D01*
X98512690Y-60709023D01*
X97363642Y-60648547D02*
X97484595Y-60709023D01*
X97726500Y-60709023D01*
X97847452Y-60648547D01*
X97907928Y-60588071D01*
X97968404Y-60467119D01*
X97968404Y-60104261D01*
X97907928Y-59983309D01*
X97847452Y-59922833D01*
X97726500Y-59862357D01*
X97484595Y-59862357D01*
X97363642Y-59922833D01*
X96637928Y-60709023D02*
X96758880Y-60648547D01*
X96819357Y-60588071D01*
X96879833Y-60467119D01*
X96879833Y-60104261D01*
X96819357Y-59983309D01*
X96758880Y-59922833D01*
X96637928Y-59862357D01*
X96456500Y-59862357D01*
X96335547Y-59922833D01*
X96275071Y-59983309D01*
X96214595Y-60104261D01*
X96214595Y-60467119D01*
X96275071Y-60588071D01*
X96335547Y-60648547D01*
X96456500Y-60709023D01*
X96637928Y-60709023D01*
X95670309Y-60709023D02*
X95670309Y-59862357D01*
X95670309Y-59983309D02*
X95609833Y-59922833D01*
X95488880Y-59862357D01*
X95307452Y-59862357D01*
X95186500Y-59922833D01*
X95126023Y-60043785D01*
X95126023Y-60709023D01*
X95126023Y-60043785D02*
X95065547Y-59922833D01*
X94944595Y-59862357D01*
X94763166Y-59862357D01*
X94642214Y-59922833D01*
X94581738Y-60043785D01*
X94581738Y-60709023D01*
D13*
X126407333Y-75194583D02*
X126068666Y-75194583D01*
X125899333Y-75279250D01*
X125730000Y-75448583D01*
X125645333Y-75787250D01*
X125645333Y-76379916D01*
X125730000Y-76718583D01*
X125899333Y-76887916D01*
X126068666Y-76972583D01*
X126407333Y-76972583D01*
X126576666Y-76887916D01*
X126746000Y-76718583D01*
X126830666Y-76379916D01*
X126830666Y-75787250D01*
X126746000Y-75448583D01*
X126576666Y-75279250D01*
X126407333Y-75194583D01*
X124968000Y-76887916D02*
X124714000Y-76972583D01*
X124290666Y-76972583D01*
X124121333Y-76887916D01*
X124036666Y-76803250D01*
X123952000Y-76633916D01*
X123952000Y-76464583D01*
X124036666Y-76295250D01*
X124121333Y-76210583D01*
X124290666Y-76125916D01*
X124629333Y-76041250D01*
X124798666Y-75956583D01*
X124883333Y-75871916D01*
X124968000Y-75702583D01*
X124968000Y-75533250D01*
X124883333Y-75363916D01*
X124798666Y-75279250D01*
X124629333Y-75194583D01*
X124206000Y-75194583D01*
X123952000Y-75279250D01*
X123190000Y-76972583D02*
X123190000Y-75194583D01*
X123190000Y-76041250D02*
X122174000Y-76041250D01*
X122174000Y-76972583D02*
X122174000Y-75194583D01*
X121496666Y-75194583D02*
X121073333Y-76972583D01*
X120734666Y-75702583D01*
X120396000Y-76972583D01*
X119972666Y-75194583D01*
X117009333Y-75279250D02*
X117178666Y-75194583D01*
X117432666Y-75194583D01*
X117686666Y-75279250D01*
X117856000Y-75448583D01*
X117940666Y-75617916D01*
X118025333Y-75956583D01*
X118025333Y-76210583D01*
X117940666Y-76549250D01*
X117856000Y-76718583D01*
X117686666Y-76887916D01*
X117432666Y-76972583D01*
X117263333Y-76972583D01*
X117009333Y-76887916D01*
X116924666Y-76803250D01*
X116924666Y-76210583D01*
X117263333Y-76210583D01*
X116162666Y-76972583D02*
X116162666Y-75194583D01*
X116162666Y-76041250D02*
X115146666Y-76041250D01*
X115146666Y-76972583D02*
X115146666Y-75194583D01*
X113961333Y-75194583D02*
X113622666Y-75194583D01*
X113453333Y-75279250D01*
X113284000Y-75448583D01*
X113199333Y-75787250D01*
X113199333Y-76379916D01*
X113284000Y-76718583D01*
X113453333Y-76887916D01*
X113622666Y-76972583D01*
X113961333Y-76972583D01*
X114130666Y-76887916D01*
X114300000Y-76718583D01*
X114384666Y-76379916D01*
X114384666Y-75787250D01*
X114300000Y-75448583D01*
X114130666Y-75279250D01*
X113961333Y-75194583D01*
X112522000Y-76887916D02*
X112268000Y-76972583D01*
X111844666Y-76972583D01*
X111675333Y-76887916D01*
X111590666Y-76803250D01*
X111506000Y-76633916D01*
X111506000Y-76464583D01*
X111590666Y-76295250D01*
X111675333Y-76210583D01*
X111844666Y-76125916D01*
X112183333Y-76041250D01*
X112352666Y-75956583D01*
X112437333Y-75871916D01*
X112522000Y-75702583D01*
X112522000Y-75533250D01*
X112437333Y-75363916D01*
X112352666Y-75279250D01*
X112183333Y-75194583D01*
X111760000Y-75194583D01*
X111506000Y-75279250D01*
X110998000Y-75194583D02*
X109982000Y-75194583D01*
X110490000Y-76972583D02*
X110490000Y-75194583D01*
X120565333Y-80084083D02*
X121158000Y-79237416D01*
X121581333Y-80084083D02*
X121581333Y-78306083D01*
X120904000Y-78306083D01*
X120734666Y-78390750D01*
X120650000Y-78475416D01*
X120565333Y-78644750D01*
X120565333Y-78898750D01*
X120650000Y-79068083D01*
X120734666Y-79152750D01*
X120904000Y-79237416D01*
X121581333Y-79237416D01*
X119126000Y-79999416D02*
X119295333Y-80084083D01*
X119634000Y-80084083D01*
X119803333Y-79999416D01*
X119888000Y-79830083D01*
X119888000Y-79152750D01*
X119803333Y-78983416D01*
X119634000Y-78898750D01*
X119295333Y-78898750D01*
X119126000Y-78983416D01*
X119041333Y-79152750D01*
X119041333Y-79322083D01*
X119888000Y-79491416D01*
X118448666Y-78898750D02*
X118025333Y-80084083D01*
X117602000Y-78898750D01*
X116924666Y-79914750D02*
X116840000Y-79999416D01*
X116924666Y-80084083D01*
X117009333Y-79999416D01*
X116924666Y-79914750D01*
X116924666Y-80084083D01*
X116162666Y-79576083D02*
X115316000Y-79576083D01*
X116332000Y-80084083D02*
X115739333Y-78306083D01*
X115146666Y-80084083D01*
D12*
X102933500Y-52133500D02*
X102933500Y-52362100D01*
X103212900Y-52082700D02*
X102933500Y-52539900D01*
X102628700Y-52082700D02*
X103212900Y-52082700D01*
X102908100Y-52514500D02*
X102628700Y-52082700D01*
D11*
X121843800Y-57607200D02*
X120142000Y-55626000D01*
X122580400Y-58623200D02*
X121843800Y-57607200D01*
X124231400Y-61315600D02*
X122580400Y-58623200D01*
X125399800Y-63855600D02*
X124231400Y-61315600D01*
X125577600Y-64363600D02*
X125399800Y-63855600D01*
X126390400Y-67106800D02*
X125577600Y-64363600D01*
X127025400Y-70535800D02*
X126390400Y-67106800D01*
X127228600Y-72237600D02*
X127025400Y-70535800D01*
X127635000Y-77343000D02*
X127228600Y-72237600D01*
X127838200Y-79629000D02*
X127635000Y-77343000D01*
X128066800Y-81178400D02*
X127838200Y-79629000D01*
X128397000Y-82626200D02*
X128066800Y-81178400D01*
X128879600Y-84150200D02*
X128397000Y-82626200D01*
X129387600Y-85471000D02*
X128879600Y-84150200D01*
X130683000Y-88747600D02*
X129387600Y-85471000D01*
X132105400Y-93116400D02*
X130683000Y-88747600D01*
X132156200Y-93395800D02*
X132105400Y-93116400D01*
X132207000Y-94437200D02*
X132156200Y-93395800D01*
X132207000Y-95123000D02*
X132207000Y-94437200D01*
X132105400Y-95580200D02*
X132207000Y-95123000D01*
X131622800Y-96240600D02*
X132105400Y-95580200D01*
X131038600Y-96469200D02*
X131622800Y-96240600D01*
X130200400Y-96621600D02*
X131038600Y-96469200D01*
X125552200Y-97028000D02*
X130200400Y-96621600D01*
X124180600Y-97155000D02*
X125552200Y-97028000D01*
X123317000Y-97307400D02*
X124180600Y-97155000D01*
X122732800Y-97561400D02*
X123317000Y-97307400D01*
X122250200Y-97917000D02*
X122732800Y-97561400D01*
X119329200Y-101371400D02*
X122250200Y-97917000D01*
X118643400Y-101981000D02*
X119329200Y-101371400D01*
X118135400Y-102260400D02*
X118643400Y-101981000D01*
X117551200Y-102412800D02*
X118135400Y-102260400D01*
X117221000Y-102412800D02*
X117551200Y-102412800D01*
X116179600Y-102412800D02*
X117221000Y-102412800D01*
X115112800Y-102184200D02*
X116179600Y-102412800D01*
X113944400Y-101701600D02*
X115112800Y-102184200D01*
X112141000Y-100685600D02*
X113944400Y-101701600D01*
X110185200Y-99720400D02*
X112141000Y-100685600D01*
X108686600Y-99237800D02*
X110185200Y-99720400D01*
X107086400Y-99212400D02*
X108686600Y-99237800D01*
X105511600Y-99517200D02*
X107086400Y-99212400D01*
X99796600Y-101523800D02*
X105511600Y-99517200D01*
X98831400Y-101752400D02*
X99796600Y-101523800D01*
X97866200Y-101828600D02*
X98831400Y-101752400D01*
X97129600Y-101650800D02*
X97866200Y-101828600D01*
X96164400Y-100939600D02*
X97129600Y-101650800D01*
X95300800Y-100025200D02*
X96164400Y-100939600D01*
X94691200Y-99110800D02*
X95300800Y-100025200D01*
X93903800Y-98018600D02*
X94691200Y-99110800D01*
X93091000Y-97078800D02*
X93903800Y-98018600D01*
X92811600Y-96799400D02*
X93091000Y-97078800D01*
X91922600Y-96215200D02*
X92811600Y-96799400D01*
X90957400Y-95986600D02*
X91922600Y-96215200D01*
X89763600Y-95986600D02*
X90957400Y-95986600D01*
X88087200Y-96291400D02*
X89763600Y-95986600D01*
X82753200Y-97586800D02*
X88087200Y-96291400D01*
X82042000Y-97688400D02*
X82753200Y-97586800D01*
X81229200Y-97561400D02*
X82042000Y-97688400D01*
X80721200Y-97205800D02*
X81229200Y-97561400D01*
X80467200Y-96393000D02*
X80721200Y-97205800D01*
X80568800Y-95097600D02*
X80467200Y-96393000D01*
X80949800Y-93421200D02*
X80568800Y-95097600D01*
X81407000Y-92049600D02*
X80949800Y-93421200D01*
X82473800Y-88849200D02*
X81407000Y-92049600D01*
X83235800Y-86334600D02*
X82473800Y-88849200D01*
X83769200Y-84150200D02*
X83235800Y-86334600D01*
X84150200Y-81965800D02*
X83769200Y-84150200D01*
X84328000Y-80289400D02*
X84150200Y-81965800D01*
X84480400Y-78740000D02*
X84328000Y-80289400D01*
X85013800Y-71424800D02*
X84480400Y-78740000D01*
X85242400Y-69570600D02*
X85013800Y-71424800D01*
X85521800Y-67945000D02*
X85242400Y-69570600D01*
X85877400Y-66522600D02*
X85521800Y-67945000D01*
X86385400Y-64973200D02*
X85877400Y-66522600D01*
X87426800Y-62382400D02*
X86385400Y-64973200D01*
X89281000Y-59080400D02*
X87426800Y-62382400D01*
X90932000Y-56972200D02*
X89281000Y-59080400D01*
X91770200Y-55930800D02*
X90932000Y-56972200D01*
X93218000Y-54584600D02*
X91770200Y-55930800D01*
X120142000Y-55626000D02*
G75*
G03X93218000Y-54610000I-13970000J-12954000D01*
G01*
X96418400Y-85217000D02*
G75*
G02X108458000Y-77749400I9753600J-2286000D01*
G01*
X115951000Y-89611200D02*
G75*
G02X104063800Y-97282000I-9779000J2108200D01*
G01*
X108356400Y-97282000D02*
G75*
G02X96393000Y-89687400I-2184400J9779000D01*
G01*
D14*
X104122000Y-77303000D02*
X108222000Y-77303000D01*
D11*
X104114600Y-77647800D02*
G75*
G02X115824000Y-85344000I2006600J-9702800D01*
G01*
D12*
X104063800Y-77266800D02*
X104063800Y-77647800D01*
X108280200Y-77266800D02*
X108280200Y-77647800D01*
X108102400Y-77241400D02*
X108102400Y-77622400D01*
X104241600Y-77241400D02*
X104241600Y-77622400D01*
D11*
X113792000Y-95377000D02*
X114300000Y-95377000D01*
X113538000Y-95631000D02*
X114554000Y-95631000D01*
X113284000Y-95885000D02*
X114808000Y-95885000D01*
X113030000Y-96139000D02*
X115062000Y-96139000D01*
X114046000Y-95123000D02*
X112776000Y-96393000D01*
X112776000Y-96393000D02*
X115316000Y-96393000D01*
X115316000Y-96393000D02*
X114046000Y-95123000D01*
X110680056Y-68286871D02*
G75*
G02X110426500Y-68897500I-865696J1511D01*
G01*
X109233520Y-66791680D02*
G75*
G02X109740700Y-67823080I-991420J-1127920D01*
G01*
X110150840Y-68927546D02*
G75*
G02X109740700Y-67830700I1118940J1043506D01*
G01*
X110428288Y-69026291D02*
G75*
G02X110124240Y-68900040I752J431051D01*
G01*
X109861840Y-69020113D02*
G75*
G02X109359700Y-68224400I709440J1003993D01*
G01*
X108980295Y-66885566D02*
G75*
G02X109334300Y-67876420I-1408755J-1061974D01*
G01*
X109513427Y-69025803D02*
G75*
G02X109313980Y-69001640I-1327J824263D01*
G01*
X109311997Y-69000953D02*
G75*
G02X108732320Y-68727320I205183J1185493D01*
G01*
X108708446Y-68705474D02*
G75*
G02X108394500Y-67947540I757934J757934D01*
G01*
X108394783Y-67947987D02*
G75*
G02X108465620Y-67579240I992857J447D01*
G01*
X108529648Y-66644636D02*
G75*
G02X108465620Y-67579240I-1478808J-368184D01*
G01*
X109831500Y-66666011D02*
G75*
G02X110553500Y-67310000I-601340J-1400909D01*
G01*
X110607294Y-67405821D02*
G75*
G02X110807500Y-68160900I-1323794J-755079D01*
G01*
X110809374Y-68161401D02*
G75*
G02X110723680Y-68605400I-1195674J501D01*
G01*
X110853220Y-69280112D02*
G75*
G02X110561120Y-69159120I0J413092D01*
G01*
X111210634Y-69130454D02*
G75*
G02X110853220Y-69278500I-357414J357414D01*
G01*
X111583758Y-69296210D02*
G75*
G02X111315500Y-68643500I653762J650170D01*
G01*
X111821478Y-69913780D02*
G75*
G02X111315500Y-68689220I1228842J1224560D01*
G01*
X115385879Y-65374686D02*
G75*
G02X114043460Y-65590420I-1812319J6992786D01*
G01*
X112261630Y-66164434D02*
G75*
G02X113525300Y-65664080I2134890J-3545866D01*
G01*
X111195141Y-67242265D02*
G75*
G02X112250220Y-66172080I3831299J-2722035D01*
G01*
X111314655Y-68516569D02*
G75*
G02X111434880Y-67579240I762845J378529D01*
G01*
X111605973Y-67390656D02*
G75*
G02X114160300Y-66121280I3654147J-4148444D01*
G01*
X116497041Y-65310278D02*
G75*
G02X114470180Y-66060320I-2631381J3997218D01*
G01*
X111763049Y-69602059D02*
G75*
G02X111315500Y-68516500I1086611J1083019D01*
G01*
X111189260Y-66864743D02*
G75*
G02X111249460Y-66187320I3049780J70363D01*
G01*
X111396236Y-65584085D02*
G75*
G02X113446560Y-64071500I2144304J-760715D01*
G01*
X117310452Y-63927022D02*
G75*
G02X115595400Y-64267080I-1268012J1900222D01*
G01*
X115284433Y-67850513D02*
G75*
G02X113418620Y-68516500I-1738813J1924813D01*
G01*
X117304964Y-65430947D02*
G75*
G02X115323620Y-67812920I-8344044J4925607D01*
G01*
X111592360Y-68239640D02*
G75*
G02X112311180Y-68242180I358140J-360680D01*
G01*
X112903000Y-68518566D02*
G75*
G02X112364520Y-68295520I0J761526D01*
G01*
X113220500Y-72326500D02*
G75*
G02X111696500Y-70802500I0J1524000D01*
G01*
X126555500Y-70802500D02*
G75*
G02X125031500Y-72326500I-1524000J0D01*
G01*
X125031500Y-69278500D02*
G75*
G02X126555500Y-70802500I0J-1524000D01*
G01*
X111696500Y-70802500D02*
G75*
G02X113220500Y-69278500I1524000J0D01*
G01*
X109664500Y-68897500D02*
X109156500Y-68897500D01*
X109537500Y-68770500D02*
X108902500Y-68770500D01*
X109410500Y-68643500D02*
X108775500Y-68643500D01*
X109410500Y-68516500D02*
X108648500Y-68516500D01*
X109359700Y-68389500D02*
X108521500Y-68389500D01*
X109283500Y-68262500D02*
X108521500Y-68262500D01*
X109283500Y-68135500D02*
X108521500Y-68135500D01*
X109283500Y-68008500D02*
X108521500Y-68008500D01*
X109283500Y-67881500D02*
X108521500Y-67881500D01*
X109283500Y-67754500D02*
X108521500Y-67754500D01*
X109283500Y-67627500D02*
X108521500Y-67627500D01*
X109283500Y-67500500D02*
X108648500Y-67500500D01*
X109156500Y-67373500D02*
X108648500Y-67373500D01*
X109156500Y-67246500D02*
X108648500Y-67246500D01*
X108775500Y-66738500D02*
X108775500Y-67246500D01*
X108902500Y-66738500D02*
X108902500Y-67246500D01*
X109029500Y-66357500D02*
X108521500Y-66357500D01*
X109156500Y-66484500D02*
X108521500Y-66484500D01*
X109410500Y-66611500D02*
X108648500Y-66611500D01*
X108902500Y-66738500D02*
X109791500Y-66738500D01*
X108775500Y-66738500D02*
X108902500Y-66738500D01*
X108648500Y-66738500D02*
X108775500Y-66738500D01*
X109410500Y-66865500D02*
X109918500Y-66865500D01*
X109537500Y-66992500D02*
X110172500Y-66992500D01*
X109537500Y-67119500D02*
X110299500Y-67119500D01*
X109664500Y-67246500D02*
X110426500Y-67246500D01*
X109664500Y-67373500D02*
X110553500Y-67373500D01*
X109791500Y-67500500D02*
X110553500Y-67500500D01*
X109791500Y-67627500D02*
X110553500Y-67627500D01*
X109791500Y-67754500D02*
X110680500Y-67754500D01*
X109791500Y-67881500D02*
X110680500Y-67881500D01*
X110553500Y-68643500D02*
X110045500Y-68643500D01*
X110553500Y-68516500D02*
X109918500Y-68516500D01*
X110680500Y-68389500D02*
X109918500Y-68389500D01*
X110680500Y-68262500D02*
X109918500Y-68262500D01*
X110553500Y-68135500D02*
X109918500Y-68135500D01*
X110045500Y-68008500D02*
X110045500Y-68516500D01*
X109791500Y-68008500D02*
X110299500Y-68897500D01*
X110045500Y-68008500D02*
X109791500Y-68008500D01*
X110426500Y-68008500D02*
X110045500Y-68008500D01*
X110553500Y-68643500D02*
X110553500Y-68770500D01*
X110553500Y-68516500D02*
X110553500Y-68643500D01*
X110553500Y-68135500D02*
X110553500Y-68516500D01*
X110553500Y-68008500D02*
X110553500Y-68135500D01*
X110426500Y-68008500D02*
X110426500Y-68643500D01*
X110553500Y-68008500D02*
X110426500Y-68008500D01*
X110680500Y-68008500D02*
X110553500Y-68008500D01*
X110680500Y-68262500D02*
X110680500Y-68008500D01*
X110680500Y-68285360D02*
X110680500Y-68262500D01*
X109740700Y-67830700D02*
X109740700Y-67823080D01*
X110124240Y-68900040D02*
X110152180Y-68927980D01*
D15*
X113474500Y-67500500D02*
X114744500Y-67246500D01*
X113093500Y-67627500D02*
X113474500Y-67500500D01*
X112966500Y-67500500D02*
X113093500Y-67627500D01*
X112966500Y-67373500D02*
X112966500Y-67500500D01*
X113474500Y-67119500D02*
X112966500Y-67373500D01*
X113728500Y-67119500D02*
X113474500Y-67119500D01*
X114744500Y-66865500D02*
X113728500Y-67119500D01*
X115252500Y-66865500D02*
X114744500Y-66865500D01*
X115379500Y-66992500D02*
X115252500Y-66865500D01*
X115252500Y-67119500D02*
X115379500Y-66992500D01*
X114617500Y-67627500D02*
X115252500Y-67119500D01*
X114109500Y-67754500D02*
X114617500Y-67627500D01*
X113728500Y-67881500D02*
X114109500Y-67754500D01*
X113093500Y-67881500D02*
X113728500Y-67881500D01*
X112712500Y-67754500D02*
X113093500Y-67881500D01*
X112458500Y-67754500D02*
X112712500Y-67754500D01*
X112331500Y-67500500D02*
X112458500Y-67754500D01*
X112458500Y-67373500D02*
X112331500Y-67500500D01*
X113093500Y-66865500D02*
X112458500Y-67373500D01*
X114109500Y-66611500D02*
X113093500Y-66865500D01*
X115252500Y-66484500D02*
X114109500Y-66611500D01*
X115379500Y-66484500D02*
X115252500Y-66484500D01*
X115506500Y-66611500D02*
X115379500Y-66484500D01*
X116268500Y-65976500D02*
X115506500Y-66611500D01*
X115633500Y-65976500D02*
X116395500Y-65595500D01*
X114896900Y-66230500D02*
X115633500Y-65976500D01*
X114287300Y-66230500D02*
X114896900Y-66230500D01*
X112890300Y-66713100D02*
X114287300Y-66230500D01*
X112204500Y-67119500D02*
X112890300Y-66713100D01*
X111696500Y-67627500D02*
X112204500Y-67119500D01*
X111442500Y-68135500D02*
X111696500Y-67627500D01*
X111696500Y-67881500D02*
X111442500Y-68135500D01*
X112077500Y-67754500D02*
X111696500Y-67881500D01*
X112839500Y-68262500D02*
X112077500Y-67754500D01*
X113728500Y-68262500D02*
X112839500Y-68262500D01*
X114617500Y-68008500D02*
X113728500Y-68262500D01*
X115125500Y-67627500D02*
X114617500Y-68008500D01*
X116014500Y-66738500D02*
X115125500Y-67627500D01*
X116268500Y-66357500D02*
X116014500Y-66738500D01*
X116649500Y-65849500D02*
X116268500Y-66357500D01*
X116779040Y-65341500D02*
X117157500Y-64455040D01*
X116779040Y-65722500D02*
X116779040Y-65341500D01*
X117157500Y-65214500D02*
X116779040Y-65722500D01*
X117284500Y-64706500D02*
X117157500Y-65214500D01*
X117792500Y-63817500D02*
X117284500Y-64706500D01*
X112204500Y-65341500D02*
X113855500Y-65341500D01*
X112331500Y-64960500D02*
X117284500Y-64884300D01*
X112331500Y-65214500D02*
X112331500Y-64960500D01*
X112331500Y-64706500D02*
X112331500Y-64960500D01*
X116903500Y-64706500D02*
X112331500Y-64706500D01*
X116395500Y-64833500D02*
X116903500Y-64706500D01*
X115125500Y-65214500D02*
X116395500Y-64833500D01*
X113982500Y-65341500D02*
X115125500Y-65214500D01*
X113855500Y-65341500D02*
X113982500Y-65341500D01*
X113347500Y-65341500D02*
X113855500Y-65341500D01*
X112712500Y-65722500D02*
X113347500Y-65341500D01*
X112331500Y-65214500D02*
X111950500Y-65722500D01*
X112585500Y-65722500D02*
X112331500Y-65214500D01*
X111950500Y-66103500D02*
X112585500Y-65722500D01*
X111442500Y-66738500D02*
X111950500Y-66103500D01*
X111569500Y-65722500D02*
X111442500Y-66738500D01*
X111823500Y-65214500D02*
X111569500Y-65722500D01*
X112331500Y-64706500D02*
X111823500Y-65214500D01*
X112966500Y-64325500D02*
X112331500Y-64706500D01*
X114617500Y-64325500D02*
X112966500Y-64325500D01*
X115633500Y-64455040D02*
X114617500Y-64325500D01*
X116779040Y-64455040D02*
X115633500Y-64455040D01*
D11*
X117792500Y-63817500D02*
X116779040Y-64455040D01*
X109334300Y-67833240D02*
X109359700Y-68224400D01*
X110413800Y-69024500D02*
X110426500Y-69024500D01*
X109512100Y-69024500D02*
X109867700Y-69024500D01*
X108709460Y-68704460D02*
X108732320Y-68727320D01*
X108394500Y-66103500D02*
X108529120Y-66641980D01*
X109410500Y-66484500D02*
X108394500Y-66103500D01*
X109832140Y-66664840D02*
X109410500Y-66484500D01*
X110606840Y-67403980D02*
X110553500Y-67310000D01*
X110426500Y-69024500D02*
X110723680Y-68605400D01*
X110561120Y-69159120D02*
X110426500Y-69024500D01*
X111315500Y-69024500D02*
X111211360Y-69131180D01*
X112077500Y-69786500D02*
X111587280Y-69296280D01*
X111315500Y-68689220D02*
X111315500Y-68643500D01*
X111950500Y-69913500D02*
X111442500Y-69151500D01*
X115392200Y-65374520D02*
X116779040Y-64960500D01*
X113525300Y-65664080D02*
X114043460Y-65590420D01*
X112250220Y-66172080D02*
X112257840Y-66167000D01*
X111191040Y-67246500D02*
X111193580Y-67243960D01*
X111605060Y-67391280D02*
X111434880Y-67579240D01*
X114470180Y-66060320D02*
X114160300Y-66121280D01*
X116779040Y-64960500D02*
X116497100Y-65308480D01*
X111950500Y-69786500D02*
X111765080Y-69601080D01*
X111292640Y-68470780D02*
X111315500Y-68516500D01*
X111191040Y-66865500D02*
X111191040Y-67246500D01*
X111396780Y-65587880D02*
X111249460Y-66187320D01*
X115595400Y-64267080D02*
X113446560Y-64071500D01*
X118173500Y-63309500D02*
X117312440Y-63929260D01*
X113418620Y-68516500D02*
X112903000Y-68516500D01*
X115323620Y-67812920D02*
X115288060Y-67848480D01*
X118173500Y-63309500D02*
X117307360Y-65425320D01*
X111592360Y-68242180D02*
X111315500Y-68516500D01*
X112364520Y-68295520D02*
X112311180Y-68242180D01*
X125031500Y-72326500D02*
X113220500Y-72326500D01*
X113220500Y-69278500D02*
X125031500Y-69278500D01*
D16*
X85486500Y-82817500D02*
X85486500Y-83579500D01*
X90058500Y-82817500D02*
X85486500Y-82817500D01*
X90058500Y-83579500D02*
X90058500Y-82817500D01*
X85486500Y-83579500D02*
X90058500Y-83579500D01*
X85537300Y-82868300D02*
X89956900Y-82868300D01*
X90007700Y-82969900D02*
X85537300Y-82969900D01*
X85537300Y-83122300D02*
X89956900Y-83122300D01*
X85537300Y-83274700D02*
X89956900Y-83274700D01*
X90007700Y-83020700D02*
X85588100Y-83020700D01*
X90007700Y-83173100D02*
X85537300Y-83173100D01*
X85588100Y-83376300D02*
X89956900Y-83376300D01*
X90007700Y-83477900D02*
X85588100Y-83477900D01*
D11*
X89852500Y-78041500D02*
X85661500Y-82232500D01*
X89725500Y-82105500D02*
X85661500Y-78168500D01*
X88709500Y-81724500D02*
X87312500Y-81724500D01*
X88709500Y-81724500D02*
X88963500Y-78676500D01*
X89217500Y-78549500D02*
X86296500Y-78549500D01*
X88201500Y-82105500D02*
X88201500Y-81851500D01*
X88709500Y-82105500D02*
X88201500Y-82105500D01*
X88709500Y-81724500D02*
X88709500Y-82105500D01*
X86804500Y-81216500D02*
X86677500Y-79184500D01*
X87206109Y-81724500D02*
G75*
G03X87206109Y-81724500I-401609J0D01*
G01*
X88582500Y-77914500D02*
X88582500Y-78422500D01*
X88709500Y-77914500D02*
X88582500Y-77914500D01*
X88709500Y-78422500D02*
X88709500Y-77914500D01*
X86296500Y-79057500D02*
X86296500Y-78549500D01*
X86677500Y-79057500D02*
X86296500Y-79057500D01*
X86677500Y-78549500D02*
X86677500Y-79057500D01*
X86550500Y-78676500D02*
X86550500Y-78803500D01*
X86550500Y-78549500D02*
X86423500Y-78930500D01*
X86550500Y-78676500D02*
X86550500Y-78803500D01*
X86423500Y-78676500D02*
X86423500Y-79057500D01*
X86550500Y-78676500D02*
X86423500Y-78676500D01*
X86550500Y-79057500D02*
X86550500Y-78676500D01*
X87947500Y-79438500D02*
X87947500Y-79057500D01*
X87058500Y-79438500D02*
X87947500Y-79438500D01*
X87058500Y-79057500D02*
X87058500Y-79438500D01*
X87947500Y-79057500D02*
X87058500Y-79057500D01*
X87820500Y-79184500D02*
X87185500Y-79184500D01*
X87566500Y-77660500D02*
X87947500Y-77660500D01*
X87566500Y-77787500D02*
X87566500Y-77660500D01*
X87947500Y-77787500D02*
X87566500Y-77787500D01*
X87947500Y-77660500D02*
X87947500Y-77787500D01*
X86677500Y-78422500D02*
G75*
G02X88963500Y-78422500I1143000J-1143000D01*
G01*
D17*
X86931500Y-81724500D02*
G75*
G03X86931500Y-81724500I-127000J0D01*
G01*
D14*
X114370747Y-56832500D02*
G75*
G03X114370747Y-56832500I-337447J0D01*
G01*
D18*
X114046000Y-56057800D02*
X113538000Y-55549800D01*
X112445800Y-55473600D02*
X111810800Y-56083200D01*
X111836200Y-58039000D02*
X112395000Y-58623200D01*
X110210600Y-58635900D02*
X110667800Y-58178700D01*
X109224800Y-58635900D02*
X110210600Y-58635900D01*
D14*
X109078324Y-58610500D02*
G75*
G03X109078324Y-58610500I-366324J0D01*
G01*
D18*
X108712000Y-55918100D02*
X108712000Y-57518300D01*
D14*
X109072818Y-55384700D02*
G75*
G03X109072818Y-55384700I-373518J0D01*
G01*
X107839759Y-58585100D02*
G75*
G03X107839759Y-58585100I-359659J0D01*
G01*
D18*
X107492800Y-58077100D02*
X107492800Y-55486300D01*
X107492800Y-55486300D02*
X106654600Y-55486300D01*
X106654600Y-55486300D02*
X106045000Y-55994300D01*
X105943400Y-56781700D02*
X105943400Y-56070500D01*
X105867200Y-55994300D02*
X105232200Y-55486300D01*
D14*
X106314318Y-57315100D02*
G75*
G03X106314318Y-57315100I-370918J0D01*
G01*
D18*
X105232200Y-55486300D02*
X104343200Y-55486300D01*
D14*
X104693729Y-58597800D02*
G75*
G03X104693729Y-58597800I-363229J0D01*
G01*
X98830666Y-58686700D02*
G75*
G03X98830666Y-58686700I-329466J0D01*
G01*
D18*
X98831400Y-58331100D02*
X99669600Y-57518300D01*
D19*
X100177600Y-57416700D02*
X99644200Y-57416700D01*
D18*
X101320600Y-58635900D02*
X100177600Y-57518300D01*
X102641400Y-58635900D02*
X101320600Y-58635900D01*
X103073200Y-58204100D02*
X102641400Y-58635900D01*
X103073200Y-55968900D02*
X103073200Y-58204100D01*
X103073200Y-55943500D02*
X102590600Y-55435500D01*
X102542500Y-55460900D02*
X101320600Y-55460900D01*
X101320600Y-55460900D02*
X100228400Y-56527700D01*
D19*
X100203000Y-56642000D02*
X99644200Y-56642000D01*
D18*
X98780600Y-55651400D02*
X99644200Y-56545100D01*
D14*
X98771735Y-55295800D02*
G75*
G03X98771735Y-55295800I-359435J0D01*
G01*
D18*
X101854000Y-57035700D02*
X103073200Y-57035700D01*
D14*
X101705659Y-57035700D02*
G75*
G03X101705659Y-57035700I-359659J0D01*
G01*
D18*
X113474500Y-58648600D02*
X112433100Y-58648600D01*
X114033300Y-58089800D02*
X114033300Y-57327800D01*
X114046000Y-58077100D02*
X113461800Y-58648600D01*
X114046000Y-56108600D02*
X114046000Y-56349900D01*
X111823500Y-56070500D02*
X111823500Y-58000900D01*
X112445800Y-55460900D02*
X113449100Y-55460900D01*
X104330500Y-55473600D02*
X104330500Y-58077100D01*
X110667800Y-58191400D02*
X110667800Y-55460900D01*
D10*
X110667800Y-55118000D02*
X110947200Y-55118000D01*
X110972600Y-55118000D02*
X110972600Y-58267600D01*
X110959900Y-55118000D02*
X110972600Y-55118000D01*
X110947200Y-55118000D02*
X110959900Y-55118000D01*
X110832900Y-55206900D02*
X110896400Y-55194200D01*
X110350300Y-55118000D02*
X110350300Y-58153300D01*
X110655100Y-55118000D02*
X110350300Y-55118000D01*
X110528100Y-55194200D02*
X110413800Y-55194200D01*
X109029500Y-55803800D02*
X109029500Y-57823100D01*
X108394500Y-57823100D02*
X108394500Y-55803800D01*
X108419900Y-57823100D02*
X108394500Y-57823100D01*
X109029500Y-57823100D02*
X108419900Y-57823100D01*
X108889800Y-57759600D02*
X108953300Y-57759600D01*
X108546900Y-57759600D02*
X108458000Y-57759600D01*
X107810300Y-58166000D02*
X107810300Y-55181500D01*
X106565700Y-55168800D02*
X105981500Y-55651400D01*
X107810300Y-55168800D02*
X106565700Y-55168800D01*
X107657900Y-55232300D02*
X107734100Y-55232300D01*
X104000300Y-58191400D02*
X104000300Y-55181500D01*
X105321100Y-55168800D02*
X105943400Y-55664100D01*
X105295700Y-55168800D02*
X105321100Y-55168800D01*
X104000300Y-55168800D02*
X105295700Y-55168800D01*
X104000300Y-55181500D02*
X104000300Y-55168800D01*
X104152700Y-55245000D02*
X104051100Y-55245000D01*
X101206300Y-55130700D02*
X99949000Y-56375300D01*
X101257100Y-55130700D02*
X101206300Y-55130700D01*
X102628700Y-55130700D02*
X101257100Y-55130700D01*
D11*
X89356037Y-88198960D02*
G75*
G03X89356037Y-88198960I-1802237J0D01*
G01*
D20*
X86393020Y-89362280D02*
X88826340Y-86941660D01*
D11*
X91440000Y-71755000D02*
X91440000Y-70231000D01*
X89154000Y-71755000D02*
X89154000Y-70231000D01*
D16*
X101195000Y-54594000D02*
X110895000Y-54594000D01*
X110895000Y-54594000D02*
X110895000Y-51194000D01*
X110895000Y-51194000D02*
X101195000Y-51194000D01*
X101195000Y-51194000D02*
X101195000Y-54594000D01*
D11*
X95504000Y-62230000D02*
X93980000Y-62230000D01*
X95504000Y-64516000D02*
X93980000Y-64516000D01*
X95504000Y-67310000D02*
X93980000Y-67310000D01*
X95504000Y-65024000D02*
X93980000Y-65024000D01*
X94488000Y-77343000D02*
X94488000Y-75819000D01*
X92202000Y-77343000D02*
X92202000Y-75819000D01*
X95377000Y-77343000D02*
X95377000Y-75819000D01*
X97663000Y-77343000D02*
X97663000Y-75819000D01*
X100457000Y-71120000D02*
X100457000Y-69596000D01*
X98171000Y-71120000D02*
X98171000Y-69596000D01*
D16*
X96854213Y-72119515D02*
G75*
G03X96854213Y-72119515I-158053J0D01*
G01*
D21*
X93460200Y-70171335D02*
X93460200Y-71791855D01*
X96305000Y-71791855D02*
X96305000Y-70171335D01*
X95309320Y-71791855D02*
X95403300Y-71791855D01*
X94361900Y-71791855D02*
X94455880Y-71791855D01*
X95309320Y-70173875D02*
X95403300Y-70173875D01*
X94361900Y-70173875D02*
X94455880Y-70173875D01*
D16*
X95965213Y-71230515D02*
G75*
G03X95965213Y-71230515I-158053J0D01*
G01*
D11*
X124387428Y-93952785D02*
X124206000Y-94013261D01*
X124145523Y-94073738D01*
X124085047Y-94194690D01*
X124085047Y-94376119D01*
X124145523Y-94497071D01*
X124206000Y-94557547D01*
X124326952Y-94618023D01*
X124810761Y-94618023D01*
X124810761Y-93348023D01*
X124387428Y-93348023D01*
X124266476Y-93408500D01*
X124206000Y-93468976D01*
X124145523Y-93589928D01*
X124145523Y-93710880D01*
X124206000Y-93831833D01*
X124266476Y-93892309D01*
X124387428Y-93952785D01*
X124810761Y-93952785D01*
X123601238Y-94255166D02*
X122996476Y-94255166D01*
X123722190Y-94618023D02*
X123298857Y-93348023D01*
X122875523Y-94618023D01*
X122633619Y-93348023D02*
X121907904Y-93348023D01*
X122270761Y-94618023D02*
X122270761Y-93348023D01*
X121786952Y-94738976D02*
X120819333Y-94738976D01*
X119791238Y-94497071D02*
X119851714Y-94557547D01*
X120033142Y-94618023D01*
X120154095Y-94618023D01*
X120335523Y-94557547D01*
X120456476Y-94436595D01*
X120516952Y-94315642D01*
X120577428Y-94073738D01*
X120577428Y-93892309D01*
X120516952Y-93650404D01*
X120456476Y-93529452D01*
X120335523Y-93408500D01*
X120154095Y-93348023D01*
X120033142Y-93348023D01*
X119851714Y-93408500D01*
X119791238Y-93468976D01*
X119005047Y-93348023D02*
X118763142Y-93348023D01*
X118642190Y-93408500D01*
X118521238Y-93529452D01*
X118460761Y-93771357D01*
X118460761Y-94194690D01*
X118521238Y-94436595D01*
X118642190Y-94557547D01*
X118763142Y-94618023D01*
X119005047Y-94618023D01*
X119126000Y-94557547D01*
X119246952Y-94436595D01*
X119307428Y-94194690D01*
X119307428Y-93771357D01*
X119246952Y-93529452D01*
X119126000Y-93408500D01*
X119005047Y-93348023D01*
X117916476Y-94618023D02*
X117916476Y-93348023D01*
X117190761Y-94618023D01*
X117190761Y-93348023D01*
X115920761Y-94618023D02*
X116646476Y-94618023D01*
X116283619Y-94618023D02*
X116283619Y-93348023D01*
X116404571Y-93529452D01*
X116525523Y-93650404D01*
X116646476Y-93710880D01*
X94453857Y-87007761D02*
X94453857Y-87998238D01*
X94949095Y-87503000D02*
X93958619Y-87503000D01*
X117948857Y-87007761D02*
X117948857Y-87998238D01*
X118444095Y-87503000D02*
X117453619Y-87503000D01*
D12*
X106933904Y-96789857D02*
X105410095Y-96789857D01*
D22*
X124588693Y-71488300D02*
X124673360Y-71572966D01*
X124927360Y-71657633D01*
X125096693Y-71657633D01*
X125350693Y-71572966D01*
X125520026Y-71403633D01*
X125604693Y-71234300D01*
X125689360Y-70895633D01*
X125689360Y-70641633D01*
X125604693Y-70302966D01*
X125520026Y-70133633D01*
X125350693Y-69964300D01*
X125096693Y-69879633D01*
X124927360Y-69879633D01*
X124673360Y-69964300D01*
X124588693Y-70048966D01*
X123572693Y-71657633D02*
X123742026Y-71572966D01*
X123826693Y-71488300D01*
X123911360Y-71318966D01*
X123911360Y-70810966D01*
X123826693Y-70641633D01*
X123742026Y-70556966D01*
X123572693Y-70472300D01*
X123318693Y-70472300D01*
X123149360Y-70556966D01*
X123064693Y-70641633D01*
X122980026Y-70810966D01*
X122980026Y-71318966D01*
X123064693Y-71488300D01*
X123149360Y-71572966D01*
X123318693Y-71657633D01*
X123572693Y-71657633D01*
X122218026Y-71657633D02*
X122218026Y-70472300D01*
X122218026Y-70641633D02*
X122133360Y-70556966D01*
X121964026Y-70472300D01*
X121710026Y-70472300D01*
X121540693Y-70556966D01*
X121456026Y-70726300D01*
X121456026Y-71657633D01*
X121456026Y-70726300D02*
X121371360Y-70556966D01*
X121202026Y-70472300D01*
X120948026Y-70472300D01*
X120778693Y-70556966D01*
X120694026Y-70726300D01*
X120694026Y-71657633D01*
X119847360Y-70472300D02*
X119847360Y-72250300D01*
X119847360Y-70556966D02*
X119678026Y-70472300D01*
X119339360Y-70472300D01*
X119170026Y-70556966D01*
X119085360Y-70641633D01*
X119000693Y-70810966D01*
X119000693Y-71318966D01*
X119085360Y-71488300D01*
X119170026Y-71572966D01*
X119339360Y-71657633D01*
X119678026Y-71657633D01*
X119847360Y-71572966D01*
X117984693Y-71657633D02*
X118154026Y-71572966D01*
X118238693Y-71403633D01*
X118238693Y-69879633D01*
X117307360Y-71657633D02*
X117307360Y-70472300D01*
X117307360Y-69879633D02*
X117392026Y-69964300D01*
X117307360Y-70048966D01*
X117222693Y-69964300D01*
X117307360Y-69879633D01*
X117307360Y-70048966D01*
X115698693Y-71657633D02*
X115698693Y-70726300D01*
X115783360Y-70556966D01*
X115952693Y-70472300D01*
X116291360Y-70472300D01*
X116460693Y-70556966D01*
X115698693Y-71572966D02*
X115868026Y-71657633D01*
X116291360Y-71657633D01*
X116460693Y-71572966D01*
X116545360Y-71403633D01*
X116545360Y-71234300D01*
X116460693Y-71064966D01*
X116291360Y-70980300D01*
X115868026Y-70980300D01*
X115698693Y-70895633D01*
X114852026Y-70472300D02*
X114852026Y-71657633D01*
X114852026Y-70641633D02*
X114767360Y-70556966D01*
X114598026Y-70472300D01*
X114344026Y-70472300D01*
X114174693Y-70556966D01*
X114090026Y-70726300D01*
X114090026Y-71657633D01*
X113497360Y-70472300D02*
X112820026Y-70472300D01*
X113243360Y-69879633D02*
X113243360Y-71403633D01*
X113158693Y-71572966D01*
X112989360Y-71657633D01*
X112820026Y-71657633D01*
D19*
X124010134Y-68552581D02*
X124676800Y-67600200D01*
X125152991Y-68552581D02*
X125152991Y-66552581D01*
X124391086Y-66552581D01*
X124200610Y-66647820D01*
X124105372Y-66743058D01*
X124010134Y-66933534D01*
X124010134Y-67219248D01*
X124105372Y-67409724D01*
X124200610Y-67504962D01*
X124391086Y-67600200D01*
X125152991Y-67600200D01*
X122867277Y-68552581D02*
X123057753Y-68457343D01*
X123152991Y-68362105D01*
X123248229Y-68171629D01*
X123248229Y-67600200D01*
X123152991Y-67409724D01*
X123057753Y-67314486D01*
X122867277Y-67219248D01*
X122581562Y-67219248D01*
X122391086Y-67314486D01*
X122295848Y-67409724D01*
X122200610Y-67600200D01*
X122200610Y-68171629D01*
X122295848Y-68362105D01*
X122391086Y-68457343D01*
X122581562Y-68552581D01*
X122867277Y-68552581D01*
X121343467Y-68552581D02*
X121343467Y-66552581D01*
X121343467Y-67504962D02*
X120200610Y-67504962D01*
X120200610Y-68552581D02*
X120200610Y-66552581D01*
X119343467Y-68457343D02*
X119057753Y-68552581D01*
X118581562Y-68552581D01*
X118391086Y-68457343D01*
X118295848Y-68362105D01*
X118200610Y-68171629D01*
X118200610Y-67981153D01*
X118295848Y-67790677D01*
X118391086Y-67695439D01*
X118581562Y-67600200D01*
X118962515Y-67504962D01*
X119152991Y-67409724D01*
X119248229Y-67314486D01*
X119343467Y-67124010D01*
X119343467Y-66933534D01*
X119248229Y-66743058D01*
X119152991Y-66647820D01*
X118962515Y-66552581D01*
X118486324Y-66552581D01*
X118200610Y-66647820D01*
D11*
X88742068Y-88988327D02*
X88742068Y-87288327D01*
X88170640Y-87288327D01*
X88027782Y-87369280D01*
X87956354Y-87450232D01*
X87884925Y-87612137D01*
X87884925Y-87854994D01*
X87956354Y-88016899D01*
X88027782Y-88097851D01*
X88170640Y-88178803D01*
X88742068Y-88178803D01*
X87242068Y-88988327D02*
X87242068Y-87288327D01*
X87242068Y-87935946D02*
X87099211Y-87854994D01*
X86813497Y-87854994D01*
X86670640Y-87935946D01*
X86599211Y-88016899D01*
X86527782Y-88178803D01*
X86527782Y-88664518D01*
X86599211Y-88826422D01*
X86670640Y-88907375D01*
X86813497Y-88988327D01*
X87099211Y-88988327D01*
X87242068Y-88907375D01*
X88337571Y-70654333D02*
X88398047Y-70593857D01*
X88458523Y-70412428D01*
X88458523Y-70291476D01*
X88398047Y-70110047D01*
X88277095Y-69989095D01*
X88156142Y-69928619D01*
X87914238Y-69868142D01*
X87732809Y-69868142D01*
X87490904Y-69928619D01*
X87369952Y-69989095D01*
X87249000Y-70110047D01*
X87188523Y-70291476D01*
X87188523Y-70412428D01*
X87249000Y-70593857D01*
X87309476Y-70654333D01*
X88458523Y-71863857D02*
X88458523Y-71138142D01*
X88458523Y-71501000D02*
X87188523Y-71501000D01*
X87369952Y-71380047D01*
X87490904Y-71259095D01*
X87551380Y-71138142D01*
X108028619Y-50942119D02*
X108028619Y-49926119D01*
X106964238Y-50845357D02*
X107012619Y-50893738D01*
X107157761Y-50942119D01*
X107254523Y-50942119D01*
X107399666Y-50893738D01*
X107496428Y-50796976D01*
X107544809Y-50700214D01*
X107593190Y-50506690D01*
X107593190Y-50361547D01*
X107544809Y-50168023D01*
X107496428Y-50071261D01*
X107399666Y-49974500D01*
X107254523Y-49926119D01*
X107157761Y-49926119D01*
X107012619Y-49974500D01*
X106964238Y-50022880D01*
X106577190Y-50893738D02*
X106432047Y-50942119D01*
X106190142Y-50942119D01*
X106093380Y-50893738D01*
X106045000Y-50845357D01*
X105996619Y-50748595D01*
X105996619Y-50651833D01*
X106045000Y-50555071D01*
X106093380Y-50506690D01*
X106190142Y-50458309D01*
X106383666Y-50409928D01*
X106480428Y-50361547D01*
X106528809Y-50313166D01*
X106577190Y-50216404D01*
X106577190Y-50119642D01*
X106528809Y-50022880D01*
X106480428Y-49974500D01*
X106383666Y-49926119D01*
X106141761Y-49926119D01*
X105996619Y-49974500D01*
X105561190Y-50942119D02*
X105561190Y-49926119D01*
X105174142Y-49926119D01*
X105077380Y-49974500D01*
X105029000Y-50022880D01*
X104980619Y-50119642D01*
X104980619Y-50264785D01*
X105029000Y-50361547D01*
X105077380Y-50409928D01*
X105174142Y-50458309D01*
X105561190Y-50458309D01*
X104013000Y-50942119D02*
X104593571Y-50942119D01*
X104303285Y-50942119D02*
X104303285Y-49926119D01*
X104400047Y-50071261D01*
X104496809Y-50168023D01*
X104593571Y-50216404D01*
X102894190Y-64900023D02*
X103498952Y-64900023D01*
X103498952Y-63630023D01*
X102470857Y-64234785D02*
X102047523Y-64234785D01*
X101866095Y-64900023D02*
X102470857Y-64900023D01*
X102470857Y-63630023D01*
X101866095Y-63630023D01*
X101321809Y-64900023D02*
X101321809Y-63630023D01*
X101019428Y-63630023D01*
X100838000Y-63690500D01*
X100717047Y-63811452D01*
X100656571Y-63932404D01*
X100596095Y-64174309D01*
X100596095Y-64355738D01*
X100656571Y-64597642D01*
X100717047Y-64718595D01*
X100838000Y-64839547D01*
X101019428Y-64900023D01*
X101321809Y-64900023D01*
X99386571Y-64900023D02*
X100112285Y-64900023D01*
X99749428Y-64900023D02*
X99749428Y-63630023D01*
X99870380Y-63811452D01*
X99991333Y-63932404D01*
X100112285Y-63992880D01*
X110196690Y-64773023D02*
X110801452Y-64773023D01*
X110801452Y-63503023D01*
X109773357Y-64107785D02*
X109350023Y-64107785D01*
X109168595Y-64773023D02*
X109773357Y-64773023D01*
X109773357Y-63503023D01*
X109168595Y-63503023D01*
X108624309Y-64773023D02*
X108624309Y-63503023D01*
X108321928Y-63503023D01*
X108140500Y-63563500D01*
X108019547Y-63684452D01*
X107959071Y-63805404D01*
X107898595Y-64047309D01*
X107898595Y-64228738D01*
X107959071Y-64470642D01*
X108019547Y-64591595D01*
X108140500Y-64712547D01*
X108321928Y-64773023D01*
X108624309Y-64773023D01*
X107414785Y-63623976D02*
X107354309Y-63563500D01*
X107233357Y-63503023D01*
X106930976Y-63503023D01*
X106810023Y-63563500D01*
X106749547Y-63623976D01*
X106689071Y-63744928D01*
X106689071Y-63865880D01*
X106749547Y-64047309D01*
X107475261Y-64773023D01*
X106689071Y-64773023D01*
X91397666Y-64011023D02*
X91821000Y-63406261D01*
X92123380Y-64011023D02*
X92123380Y-62741023D01*
X91639571Y-62741023D01*
X91518619Y-62801500D01*
X91458142Y-62861976D01*
X91397666Y-62982928D01*
X91397666Y-63164357D01*
X91458142Y-63285309D01*
X91518619Y-63345785D01*
X91639571Y-63406261D01*
X92123380Y-63406261D01*
X90188142Y-64011023D02*
X90913857Y-64011023D01*
X90551000Y-64011023D02*
X90551000Y-62741023D01*
X90671952Y-62922452D01*
X90792904Y-63043404D01*
X90913857Y-63103880D01*
X91397666Y-66805023D02*
X91821000Y-66200261D01*
X92123380Y-66805023D02*
X92123380Y-65535023D01*
X91639571Y-65535023D01*
X91518619Y-65595500D01*
X91458142Y-65655976D01*
X91397666Y-65776928D01*
X91397666Y-65958357D01*
X91458142Y-66079309D01*
X91518619Y-66139785D01*
X91639571Y-66200261D01*
X92123380Y-66200261D01*
X90913857Y-65655976D02*
X90853380Y-65595500D01*
X90732428Y-65535023D01*
X90430047Y-65535023D01*
X90309095Y-65595500D01*
X90248619Y-65655976D01*
X90188142Y-65776928D01*
X90188142Y-65897880D01*
X90248619Y-66079309D01*
X90974333Y-66805023D01*
X90188142Y-66805023D01*
X93919523Y-80179333D02*
X93314761Y-79756000D01*
X93919523Y-79453619D02*
X92649523Y-79453619D01*
X92649523Y-79937428D01*
X92710000Y-80058380D01*
X92770476Y-80118857D01*
X92891428Y-80179333D01*
X93072857Y-80179333D01*
X93193809Y-80118857D01*
X93254285Y-80058380D01*
X93314761Y-79937428D01*
X93314761Y-79453619D01*
X92649523Y-80602666D02*
X92649523Y-81388857D01*
X93133333Y-80965523D01*
X93133333Y-81146952D01*
X93193809Y-81267904D01*
X93254285Y-81328380D01*
X93375238Y-81388857D01*
X93677619Y-81388857D01*
X93798571Y-81328380D01*
X93859047Y-81267904D01*
X93919523Y-81146952D01*
X93919523Y-80784095D01*
X93859047Y-80663142D01*
X93798571Y-80602666D01*
X97094523Y-80179333D02*
X96489761Y-79756000D01*
X97094523Y-79453619D02*
X95824523Y-79453619D01*
X95824523Y-79937428D01*
X95885000Y-80058380D01*
X95945476Y-80118857D01*
X96066428Y-80179333D01*
X96247857Y-80179333D01*
X96368809Y-80118857D01*
X96429285Y-80058380D01*
X96489761Y-79937428D01*
X96489761Y-79453619D01*
X96247857Y-81267904D02*
X97094523Y-81267904D01*
X95764047Y-80965523D02*
X96671190Y-80663142D01*
X96671190Y-81449333D01*
X102174523Y-70146333D02*
X101569761Y-69723000D01*
X102174523Y-69420619D02*
X100904523Y-69420619D01*
X100904523Y-69904428D01*
X100965000Y-70025380D01*
X101025476Y-70085857D01*
X101146428Y-70146333D01*
X101327857Y-70146333D01*
X101448809Y-70085857D01*
X101509285Y-70025380D01*
X101569761Y-69904428D01*
X101569761Y-69420619D01*
X100904523Y-71295380D02*
X100904523Y-70690619D01*
X101509285Y-70630142D01*
X101448809Y-70690619D01*
X101388333Y-70811571D01*
X101388333Y-71113952D01*
X101448809Y-71234904D01*
X101509285Y-71295380D01*
X101630238Y-71355857D01*
X101932619Y-71355857D01*
X102053571Y-71295380D01*
X102114047Y-71234904D01*
X102174523Y-71113952D01*
X102174523Y-70811571D01*
X102114047Y-70690619D01*
X102053571Y-70630142D01*
X96725619Y-70218904D02*
X97548095Y-70218904D01*
X97644857Y-70267285D01*
X97693238Y-70315666D01*
X97741619Y-70412428D01*
X97741619Y-70605952D01*
X97693238Y-70702714D01*
X97644857Y-70751095D01*
X97548095Y-70799476D01*
X96725619Y-70799476D01*
X97741619Y-71815476D02*
X97741619Y-71234904D01*
X97741619Y-71525190D02*
X96725619Y-71525190D01*
X96870761Y-71428428D01*
X96967523Y-71331666D01*
X97015904Y-71234904D01*
D16*
M02*
